# xmcd
#
# Track frame offsets: 
#        150
#        10009
#        23136
#        37488
#        48229
#        60079
#        70945
#        85328
#        102346
#        116321
#        129962
#        144453
#        156932
#        166285
#        179404
#        195268
#        209586
#        223835
#
# Disc length: 3136 seconds
#
# Revision: 2
# Processed by: cddbd v1.4PL0 Copyright (c) Steve Scherf et al.
# Submitted via: ExactAudioCopy v0.90b3
#
DISCID=f70c3e12
DTITLE=Tito Puente - The Complete RCA Recordings - Volume 1 - Disc 6 /
DTITLE=The Complete RCA Recordings - Volume 1 - Disc 6
DYEAR=2001
DGENRE=Latin
TTITLE0=Cuero Pelao
TTITLE1=Son Montuno
TTITLE2=Dance of the Headhunters
TTITLE3=Voodo Dance at Midnight
TTITLE4=Witch Doctor's Nightmare
TTITLE5=Jungle Holiday
TTITLE6=Dance Mania
TTITLE7=Una Mujer
TTITLE8=A Gozar Timbero
TTITLE9=Cua Cua
TTITLE10=Seperala Tambien
TTITLE11=Baila Como Es
TTITLE12=Baia
TTITLE13=La Virgen de la Macarena
TTITLE14=Temptation
TTITLE15=Autumn Leaves
TTITLE16=Kiss of Fire
TTITLE17=The Continental
EXTD=
EXTT0=
EXTT1=
EXTT2=
EXTT3=
EXTT4=
EXTT5=
EXTT6=
EXTT7=
EXTT8=
EXTT9=
EXTT10=
EXTT11=
EXTT12=
EXTT13=
EXTT14=
EXTT15=
EXTT16=
EXTT17=
PLAYORDER=
